<svg width="440" height="281" viewBox="0 0 440 281" fill="none" xmlns="http://www.w3.org/2000/svg">
<path d="M182.736 69.4685H222.267V75.8108H182.736V69.4685Z" fill="url(#paint0_linear)"/>
<path d="M190.642 78.982H238.08V85.3243H190.642V78.982Z" fill="url(#paint1_linear)"/>
<path d="M190.642 88.4955H252.311V94.8378H190.642V88.4955Z" fill="url(#paint2_linear)"/>
<path d="M198.548 98.009H234.127V104.351H198.548V98.009Z" fill="url(#paint3_linear)"/>
<path d="M198.548 107.523H268.124V113.865H198.548V107.523Z" fill="url(#paint4_linear)"/>
<path d="M198.548 117.036H260.218V123.378H198.548V117.036Z" fill="url(#paint5_linear)"/>
<path d="M190.642 126.55H269.705V132.892H190.642V126.55Z" fill="url(#paint6_linear)"/>
<path d="M190.642 136.063H228.592V142.405H190.642V136.063Z" fill="url(#paint7_linear)"/>
<path d="M198.548 145.577H233.336V151.919H198.548V145.577Z" fill="url(#paint8_linear)"/>
<path d="M198.548 155.09H248.358V161.432H198.548V155.09Z" fill="url(#paint9_linear)"/>
<path d="M190.642 164.604H217.523V170.946H190.642V164.604Z" fill="url(#paint10_linear)"/>
<path d="M182.736 174.117H211.198V180.459H182.736V174.117Z" fill="url(#paint11_linear)"/>
<path d="M319.94 48.8529C315.34 51.3592 311.923 55.992 310.818 61.5405H344.815C343.711 55.992 340.293 51.3592 335.694 48.8529C333.842 51.3158 331.001 52.8919 327.817 52.8919C324.632 52.8919 321.792 51.3158 319.94 48.8529Z" fill="url(#paint12_linear)"/>
<path d="M335.9 41.6486C335.9 46.4252 332.281 50.2973 327.817 50.2973C323.352 50.2973 319.733 46.4252 319.733 41.6486C319.733 36.8721 323.352 33 327.817 33C332.281 33 335.9 36.8721 335.9 41.6486Z" fill="url(#paint13_linear)"/>
<path d="M338.124 124.961C333.525 127.467 330.107 132.1 329.003 137.649H363C361.896 132.1 358.478 127.467 353.878 124.961C352.026 127.424 349.186 129 346.001 129C342.817 129 339.976 127.424 338.124 124.961Z" fill="url(#paint14_linear)"/>
<path d="M354.085 117.757C354.085 122.533 350.466 126.405 346.001 126.405C341.537 126.405 337.918 122.533 337.918 117.757C337.918 112.98 341.537 109.108 346.001 109.108C350.466 109.108 354.085 112.98 354.085 117.757Z" fill="url(#paint15_linear)"/>
<path d="M108.841 48.8529C104.241 51.3592 100.823 55.992 99.719 61.5405H133.716C132.612 55.992 129.194 51.3592 124.595 48.8529C122.743 51.3158 119.902 52.8919 116.718 52.8919C113.533 52.8919 110.693 51.3158 108.841 48.8529Z" fill="url(#paint16_linear)"/>
<path d="M124.801 41.6486C124.801 46.4252 121.182 50.2973 116.718 50.2973C112.253 50.2973 108.634 46.4252 108.634 41.6486C108.634 36.8721 112.253 33 116.718 33C121.182 33 124.801 36.8721 124.801 41.6486Z" fill="url(#paint17_linear)"/>
<path d="M85.1215 124.961C80.5221 127.467 77.1044 132.1 76 137.649H109.997C108.893 132.1 105.475 127.467 100.876 124.961C99.0236 127.424 96.1832 129 92.9986 129C89.8141 129 86.9736 127.424 85.1215 124.961Z" fill="url(#paint18_linear)"/>
<path d="M101.082 117.757C101.082 122.533 97.4631 126.405 92.9986 126.405C88.5341 126.405 84.9149 122.533 84.9149 117.757C84.9149 112.98 88.5341 109.108 92.9986 109.108C97.4631 109.108 101.082 112.98 101.082 117.757Z" fill="url(#paint19_linear)"/>
<path d="M116.747 196.312C112.147 198.819 108.73 203.451 107.625 209H141.623C140.518 203.451 137.1 198.819 132.501 196.312C130.649 198.775 127.808 200.351 124.624 200.351C121.439 200.351 118.599 198.775 116.747 196.312Z" fill="url(#paint20_linear)"/>
<path d="M132.708 189.108C132.708 193.885 129.088 197.757 124.624 197.757C120.159 197.757 116.54 193.885 116.54 189.108C116.54 184.332 120.159 180.459 124.624 180.459C129.088 180.459 132.708 184.332 132.708 189.108Z" fill="url(#paint21_linear)"/>
<path d="M303.336 196.312C298.737 198.819 295.319 203.451 294.215 209H328.212C327.108 203.451 323.69 198.819 319.091 196.312C317.238 198.775 314.398 200.351 311.214 200.351C308.029 200.351 305.188 198.775 303.336 196.312Z" fill="url(#paint22_linear)"/>
<path d="M319.297 189.108C319.297 193.885 315.678 197.757 311.214 197.757C306.749 197.757 303.13 193.885 303.13 189.108C303.13 184.332 306.749 180.459 311.214 180.459C315.678 180.459 319.297 184.332 319.297 189.108Z" fill="url(#paint23_linear)"/>
<path d="M143.825 58.3694L174.055 71.0962L172.643 74.4686L142.413 61.7418L143.825 58.3694Z" fill="url(#paint24_linear)"/>
<path d="M144.353 194.266L173.638 179.485L175.278 182.752L145.993 197.533L144.353 194.266Z" fill="url(#paint25_linear)"/>
<path d="M114.79 122.586L178.475 123.448L178.426 127.106L114.741 126.243L114.79 122.586Z" fill="url(#paint26_linear)"/>
<path d="M253.102 66.9393L303.925 55.1981L304.744 58.7624L253.921 70.5036L253.102 66.9393Z" fill="url(#paint27_linear)"/>
<path d="M248.519 172.307L294.785 193.127L293.292 196.464L247.025 175.644L248.519 172.307Z" fill="url(#paint28_linear)"/>
<path d="M279.24 119.618L327.905 120.277L327.855 123.935L279.19 123.275L279.24 119.618Z" fill="url(#paint29_linear)"/>
<defs>
<linearGradient id="paint0_linear" x1="161.784" y1="49.2523" x2="289.838" y2="184.075" gradientUnits="userSpaceOnUse">
<stop stop-color="#3BADFF"/>
<stop offset="1" stop-color="#1D72F2"/>
</linearGradient>
<linearGradient id="paint1_linear" x1="161.784" y1="49.2523" x2="289.838" y2="184.075" gradientUnits="userSpaceOnUse">
<stop stop-color="#3BADFF"/>
<stop offset="1" stop-color="#1D72F2"/>
</linearGradient>
<linearGradient id="paint2_linear" x1="161.784" y1="49.2523" x2="289.838" y2="184.075" gradientUnits="userSpaceOnUse">
<stop stop-color="#3BADFF"/>
<stop offset="1" stop-color="#1D72F2"/>
</linearGradient>
<linearGradient id="paint3_linear" x1="161.784" y1="49.2523" x2="289.838" y2="184.075" gradientUnits="userSpaceOnUse">
<stop stop-color="#3BADFF"/>
<stop offset="1" stop-color="#1D72F2"/>
</linearGradient>
<linearGradient id="paint4_linear" x1="161.784" y1="49.2523" x2="289.838" y2="184.075" gradientUnits="userSpaceOnUse">
<stop stop-color="#3BADFF"/>
<stop offset="1" stop-color="#1D72F2"/>
</linearGradient>
<linearGradient id="paint5_linear" x1="161.784" y1="49.2523" x2="289.838" y2="184.075" gradientUnits="userSpaceOnUse">
<stop stop-color="#3BADFF"/>
<stop offset="1" stop-color="#1D72F2"/>
</linearGradient>
<linearGradient id="paint6_linear" x1="161.784" y1="49.2523" x2="289.838" y2="184.075" gradientUnits="userSpaceOnUse">
<stop stop-color="#3BADFF"/>
<stop offset="1" stop-color="#1D72F2"/>
</linearGradient>
<linearGradient id="paint7_linear" x1="161.784" y1="49.2523" x2="289.838" y2="184.075" gradientUnits="userSpaceOnUse">
<stop stop-color="#3BADFF"/>
<stop offset="1" stop-color="#1D72F2"/>
</linearGradient>
<linearGradient id="paint8_linear" x1="161.784" y1="49.2523" x2="289.838" y2="184.075" gradientUnits="userSpaceOnUse">
<stop stop-color="#3BADFF"/>
<stop offset="1" stop-color="#1D72F2"/>
</linearGradient>
<linearGradient id="paint9_linear" x1="161.784" y1="49.2523" x2="289.838" y2="184.075" gradientUnits="userSpaceOnUse">
<stop stop-color="#3BADFF"/>
<stop offset="1" stop-color="#1D72F2"/>
</linearGradient>
<linearGradient id="paint10_linear" x1="161.784" y1="49.2523" x2="289.838" y2="184.075" gradientUnits="userSpaceOnUse">
<stop stop-color="#3BADFF"/>
<stop offset="1" stop-color="#1D72F2"/>
</linearGradient>
<linearGradient id="paint11_linear" x1="161.784" y1="49.2523" x2="289.838" y2="184.075" gradientUnits="userSpaceOnUse">
<stop stop-color="#3BADFF"/>
<stop offset="1" stop-color="#1D72F2"/>
</linearGradient>
<linearGradient id="paint12_linear" x1="161.784" y1="49.2523" x2="289.838" y2="184.075" gradientUnits="userSpaceOnUse">
<stop stop-color="#3BADFF"/>
<stop offset="1" stop-color="#1D72F2"/>
</linearGradient>
<linearGradient id="paint13_linear" x1="161.784" y1="49.2523" x2="289.838" y2="184.075" gradientUnits="userSpaceOnUse">
<stop stop-color="#3BADFF"/>
<stop offset="1" stop-color="#1D72F2"/>
</linearGradient>
<linearGradient id="paint14_linear" x1="161.784" y1="49.2523" x2="289.838" y2="184.075" gradientUnits="userSpaceOnUse">
<stop stop-color="#3BADFF"/>
<stop offset="1" stop-color="#1D72F2"/>
</linearGradient>
<linearGradient id="paint15_linear" x1="161.784" y1="49.2523" x2="289.838" y2="184.075" gradientUnits="userSpaceOnUse">
<stop stop-color="#3BADFF"/>
<stop offset="1" stop-color="#1D72F2"/>
</linearGradient>
<linearGradient id="paint16_linear" x1="161.784" y1="49.2523" x2="289.838" y2="184.075" gradientUnits="userSpaceOnUse">
<stop stop-color="#3BADFF"/>
<stop offset="1" stop-color="#1D72F2"/>
</linearGradient>
<linearGradient id="paint17_linear" x1="161.784" y1="49.2523" x2="289.838" y2="184.075" gradientUnits="userSpaceOnUse">
<stop stop-color="#3BADFF"/>
<stop offset="1" stop-color="#1D72F2"/>
</linearGradient>
<linearGradient id="paint18_linear" x1="161.784" y1="49.2523" x2="289.838" y2="184.075" gradientUnits="userSpaceOnUse">
<stop stop-color="#3BADFF"/>
<stop offset="1" stop-color="#1D72F2"/>
</linearGradient>
<linearGradient id="paint19_linear" x1="161.784" y1="49.2523" x2="289.838" y2="184.075" gradientUnits="userSpaceOnUse">
<stop stop-color="#3BADFF"/>
<stop offset="1" stop-color="#1D72F2"/>
</linearGradient>
<linearGradient id="paint20_linear" x1="161.784" y1="49.2523" x2="289.838" y2="184.075" gradientUnits="userSpaceOnUse">
<stop stop-color="#3BADFF"/>
<stop offset="1" stop-color="#1D72F2"/>
</linearGradient>
<linearGradient id="paint21_linear" x1="161.784" y1="49.2523" x2="289.838" y2="184.075" gradientUnits="userSpaceOnUse">
<stop stop-color="#3BADFF"/>
<stop offset="1" stop-color="#1D72F2"/>
</linearGradient>
<linearGradient id="paint22_linear" x1="161.784" y1="49.2523" x2="289.838" y2="184.075" gradientUnits="userSpaceOnUse">
<stop stop-color="#3BADFF"/>
<stop offset="1" stop-color="#1D72F2"/>
</linearGradient>
<linearGradient id="paint23_linear" x1="161.784" y1="49.2523" x2="289.838" y2="184.075" gradientUnits="userSpaceOnUse">
<stop stop-color="#3BADFF"/>
<stop offset="1" stop-color="#1D72F2"/>
</linearGradient>
<linearGradient id="paint24_linear" x1="161.784" y1="49.2523" x2="289.838" y2="184.075" gradientUnits="userSpaceOnUse">
<stop stop-color="#3BADFF"/>
<stop offset="1" stop-color="#1D72F2"/>
</linearGradient>
<linearGradient id="paint25_linear" x1="161.784" y1="49.2523" x2="289.838" y2="184.075" gradientUnits="userSpaceOnUse">
<stop stop-color="#3BADFF"/>
<stop offset="1" stop-color="#1D72F2"/>
</linearGradient>
<linearGradient id="paint26_linear" x1="161.784" y1="49.2523" x2="289.838" y2="184.075" gradientUnits="userSpaceOnUse">
<stop stop-color="#3BADFF"/>
<stop offset="1" stop-color="#1D72F2"/>
</linearGradient>
<linearGradient id="paint27_linear" x1="161.784" y1="49.2523" x2="289.838" y2="184.075" gradientUnits="userSpaceOnUse">
<stop stop-color="#3BADFF"/>
<stop offset="1" stop-color="#1D72F2"/>
</linearGradient>
<linearGradient id="paint28_linear" x1="161.784" y1="49.2523" x2="289.838" y2="184.075" gradientUnits="userSpaceOnUse">
<stop stop-color="#3BADFF"/>
<stop offset="1" stop-color="#1D72F2"/>
</linearGradient>
<linearGradient id="paint29_linear" x1="161.784" y1="49.2523" x2="289.838" y2="184.075" gradientUnits="userSpaceOnUse">
<stop stop-color="#3BADFF"/>
<stop offset="1" stop-color="#1D72F2"/>
</linearGradient>
</defs>
</svg>
