<svg width="910" height="240" viewBox="0 0 910 240" fill="none" xmlns="http://www.w3.org/2000/svg">
    <path d="M357.375 85.9688H325.453V174H307.805V85.9688H276.164V71.625H357.375V85.9688ZM423.258 147.633C423.258 143.133 421.664 139.664 418.477 137.227C415.336 134.789 409.641 132.328 401.391 129.844C393.141 127.359 386.578 124.594 381.703 121.547C372.375 115.688 367.711 108.047 367.711 98.625C367.711 90.375 371.062 83.5781 377.766 78.2344C384.516 72.8906 393.258 70.2188 403.992 70.2188C411.117 70.2188 417.469 71.5312 423.047 74.1562C428.625 76.7812 433.008 80.5312 436.195 85.4062C439.383 90.2344 440.977 95.6016 440.977 101.508H423.258C423.258 96.1641 421.57 91.9922 418.195 88.9922C414.867 85.9453 410.086 84.4219 403.852 84.4219C398.039 84.4219 393.516 85.6641 390.281 88.1484C387.094 90.6328 385.5 94.1016 385.5 98.5547C385.5 102.305 387.234 105.445 390.703 107.977C394.172 110.461 399.891 112.898 407.859 115.289C415.828 117.633 422.227 120.328 427.055 123.375C431.883 126.375 435.422 129.844 437.672 133.781C439.922 137.672 441.047 142.242 441.047 147.492C441.047 156.023 437.766 162.82 431.203 167.883C424.688 172.898 415.828 175.406 404.625 175.406C397.219 175.406 390.398 174.047 384.164 171.328C377.977 168.562 373.148 164.766 369.68 159.938C366.258 155.109 364.547 149.484 364.547 143.062H382.336C382.336 148.875 384.258 153.375 388.102 156.562C391.945 159.75 397.453 161.344 404.625 161.344C410.812 161.344 415.453 160.102 418.547 157.617C421.688 155.086 423.258 151.758 423.258 147.633ZM537.867 174H520.078L474.445 101.367V174H456.656V71.625H474.445L520.219 144.539V71.625H537.867V174ZM554.039 135.258C554.039 127.805 555.516 121.102 558.469 115.148C561.422 109.148 565.57 104.555 570.914 101.367C576.258 98.1328 582.398 96.5156 589.336 96.5156C599.602 96.5156 607.922 99.8203 614.297 106.43C620.719 113.039 624.188 121.805 624.703 132.727L624.773 136.734C624.773 144.234 623.32 150.938 620.414 156.844C617.555 162.75 613.43 167.32 608.039 170.555C602.695 173.789 596.508 175.406 589.477 175.406C578.742 175.406 570.141 171.844 563.672 164.719C557.25 157.547 554.039 148.008 554.039 136.102V135.258ZM571.125 136.734C571.125 144.562 572.742 150.703 575.977 155.156C579.211 159.562 583.711 161.766 589.477 161.766C595.242 161.766 599.719 159.516 602.906 155.016C606.141 150.516 607.758 143.93 607.758 135.258C607.758 127.57 606.094 121.477 602.766 116.977C599.484 112.477 595.008 110.227 589.336 110.227C583.758 110.227 579.328 112.453 576.047 116.906C572.766 121.312 571.125 127.922 571.125 136.734ZM636.023 135.398C636.023 123.68 638.742 114.281 644.18 107.203C649.617 100.078 656.906 96.5156 666.047 96.5156C674.109 96.5156 680.625 99.3281 685.594 104.953V66H702.68V174H687.211L686.367 166.125C681.258 172.312 674.438 175.406 665.906 175.406C657 175.406 649.781 171.82 644.25 164.648C638.766 157.477 636.023 147.727 636.023 135.398ZM653.109 136.875C653.109 144.609 654.586 150.656 657.539 155.016C660.539 159.328 664.781 161.484 670.266 161.484C677.25 161.484 682.359 158.367 685.594 152.133V119.648C682.453 113.555 677.391 110.508 670.406 110.508C664.875 110.508 660.609 112.711 657.609 117.117C654.609 121.477 653.109 128.062 653.109 136.875ZM754.008 175.406C743.18 175.406 734.391 172.008 727.641 165.211C720.938 158.367 717.586 149.273 717.586 137.93V135.82C717.586 128.227 719.039 121.453 721.945 115.5C724.898 109.5 729.023 104.836 734.32 101.508C739.617 98.1797 745.523 96.5156 752.039 96.5156C762.398 96.5156 770.391 99.8203 776.016 106.43C781.688 113.039 784.523 122.391 784.523 134.484V141.375H734.812C735.328 147.656 737.414 152.625 741.07 156.281C744.773 159.938 749.414 161.766 754.992 161.766C762.82 161.766 769.195 158.602 774.117 152.273L783.328 161.062C780.281 165.609 776.203 169.148 771.094 171.68C766.031 174.164 760.336 175.406 754.008 175.406ZM751.969 110.227C747.281 110.227 743.484 111.867 740.578 115.148C737.719 118.43 735.891 123 735.094 128.859H767.648V127.594C767.273 121.875 765.75 117.562 763.078 114.656C760.406 111.703 756.703 110.227 751.969 110.227ZM840.492 153.328C840.492 150.281 839.227 147.961 836.695 146.367C834.211 144.773 830.062 143.367 824.25 142.148C818.438 140.93 813.586 139.383 809.695 137.508C801.164 133.383 796.898 127.406 796.898 119.578C796.898 113.016 799.664 107.531 805.195 103.125C810.727 98.7188 817.758 96.5156 826.289 96.5156C835.383 96.5156 842.719 98.7656 848.297 103.266C853.922 107.766 856.734 113.602 856.734 120.773H839.648C839.648 117.492 838.43 114.773 835.992 112.617C833.555 110.414 830.32 109.312 826.289 109.312C822.539 109.312 819.469 110.18 817.078 111.914C814.734 113.648 813.562 115.969 813.562 118.875C813.562 121.5 814.664 123.539 816.867 124.992C819.07 126.445 823.523 127.922 830.227 129.422C836.93 130.875 842.18 132.633 845.977 134.695C849.82 136.711 852.656 139.148 854.484 142.008C856.359 144.867 857.297 148.336 857.297 152.414C857.297 159.258 854.461 164.812 848.789 169.078C843.117 173.297 835.688 175.406 826.5 175.406C820.266 175.406 814.711 174.281 809.836 172.031C804.961 169.781 801.164 166.688 798.445 162.75C795.727 158.812 794.367 154.57 794.367 150.023H810.961C811.195 154.055 812.719 157.172 815.531 159.375C818.344 161.531 822.07 162.609 826.711 162.609C831.211 162.609 834.633 161.766 836.977 160.078C839.32 158.344 840.492 156.094 840.492 153.328Z" fill="#595959"/>
    <g filter="url(#filter0_d)">
        <path d="M58 123.073C58 121.261 59.2183 119.675 60.9693 119.208L202.969 81.3415C205.509 80.6643 208 82.5783 208 85.2064V116.927C208 118.739 206.782 120.325 205.031 120.792L63.0307 158.658C60.4913 159.336 58 157.422 58 154.794V123.073Z" fill="#3BADFF"/>
    </g>
    <g filter="url(#filter1_d)">
        <path d="M80 24C80 21.7909 81.7909 20 84 20H156C158.209 20 160 21.7909 160 24V216C160 218.209 158.209 220 156 220H84C81.7909 220 80 218.209 80 216V24Z" fill="#1D72F2"/>
    </g>
    <g filter="url(#filter2_d)">
        <path d="M31 183.073C31 181.261 32.2183 179.675 33.9693 179.208L175.969 141.342C178.509 140.664 181 142.578 181 145.206V176.927C181 178.739 179.782 180.325 178.031 180.792L36.0307 218.658C33.4913 219.336 31 217.422 31 214.794V183.073Z" fill="#3BADFF"/>
    </g>
    <g filter="url(#filter3_d)">
        <path d="M31 74.0731C31 72.2609 32.2183 70.6751 33.9693 70.2082L175.969 32.3415C178.509 31.6643 181 33.5783 181 36.2064V67.9269C181 69.7391 179.782 71.3249 178.031 71.7918L36.0307 109.658C33.4913 110.336 31 108.422 31 105.794V74.0731Z" fill="#3BADFF"/>
    </g>
    <defs>
        <filter id="filter0_d" x="57" y="80.2043" width="156" height="83.5915" filterUnits="userSpaceOnUse" color-interpolation-filters="sRGB">
            <feFlood flood-opacity="0" result="BackgroundImageFix"/>
            <feColorMatrix in="SourceAlpha" type="matrix" values="0 0 0 0 0 0 0 0 0 0 0 0 0 0 0 0 0 0 127 0"/>
            <feOffset dx="2" dy="2"/>
            <feGaussianBlur stdDeviation="1.5"/>
            <feColorMatrix type="matrix" values="0 0 0 0 0 0 0 0 0 0 0 0 0 0 0 0 0 0 0.2 0"/>
            <feBlend mode="normal" in2="BackgroundImageFix" result="effect1_dropShadow"/>
            <feBlend mode="normal" in="SourceGraphic" in2="effect1_dropShadow" result="shape"/>
        </filter>
        <filter id="filter1_d" x="79" y="19" width="86" height="206" filterUnits="userSpaceOnUse" color-interpolation-filters="sRGB">
            <feFlood flood-opacity="0" result="BackgroundImageFix"/>
            <feColorMatrix in="SourceAlpha" type="matrix" values="0 0 0 0 0 0 0 0 0 0 0 0 0 0 0 0 0 0 127 0"/>
            <feOffset dx="2" dy="2"/>
            <feGaussianBlur stdDeviation="1.5"/>
            <feColorMatrix type="matrix" values="0 0 0 0 0 0 0 0 0 0 0 0 0 0 0 0 0 0 0.2 0"/>
            <feBlend mode="normal" in2="BackgroundImageFix" result="effect1_dropShadow"/>
            <feBlend mode="normal" in="SourceGraphic" in2="effect1_dropShadow" result="shape"/>
        </filter>
        <filter id="filter2_d" x="30" y="140.204" width="156" height="83.5915" filterUnits="userSpaceOnUse" color-interpolation-filters="sRGB">
            <feFlood flood-opacity="0" result="BackgroundImageFix"/>
            <feColorMatrix in="SourceAlpha" type="matrix" values="0 0 0 0 0 0 0 0 0 0 0 0 0 0 0 0 0 0 127 0"/>
            <feOffset dx="2" dy="2"/>
            <feGaussianBlur stdDeviation="1.5"/>
            <feColorMatrix type="matrix" values="0 0 0 0 0 0 0 0 0 0 0 0 0 0 0 0 0 0 0.2 0"/>
            <feBlend mode="normal" in2="BackgroundImageFix" result="effect1_dropShadow"/>
            <feBlend mode="normal" in="SourceGraphic" in2="effect1_dropShadow" result="shape"/>
        </filter>
        <filter id="filter3_d" x="30" y="31.2043" width="156" height="83.5915" filterUnits="userSpaceOnUse" color-interpolation-filters="sRGB">
            <feFlood flood-opacity="0" result="BackgroundImageFix"/>
            <feColorMatrix in="SourceAlpha" type="matrix" values="0 0 0 0 0 0 0 0 0 0 0 0 0 0 0 0 0 0 127 0"/>
            <feOffset dx="2" dy="2"/>
            <feGaussianBlur stdDeviation="1.5"/>
            <feColorMatrix type="matrix" values="0 0 0 0 0 0 0 0 0 0 0 0 0 0 0 0 0 0 0.2 0"/>
            <feBlend mode="normal" in2="BackgroundImageFix" result="effect1_dropShadow"/>
            <feBlend mode="normal" in="SourceGraphic" in2="effect1_dropShadow" result="shape"/>
        </filter>
    </defs>
</svg>
